<svg xmlns="http://www.w3.org/2000/svg" xmlns:xlink="http://www.w3.org/1999/xlink" viewBox="0 0 150 100"><defs><style>.cls-1{fill:#fff;}.cls-2{fill:url(#Dégradé_sans_nom_99);}.cls-3{fill:url(#Dégradé_sans_nom_50);}.cls-4{fill:#57dccf;}.cls-5{fill:#00b9b7;}.cls-6{fill:#0f86a7;}.cls-7{fill:#0d2e73;}.cls-8{fill:none;}.cls-9{fill:#e6e6e6;}.cls-10{fill:url(#Dégradé_sans_nom_19);}.cls-11{fill:url(#Dégradé_sans_nom_19-2);}.cls-12{fill:url(#Dégradé_sans_nom_19-3);}.cls-13{fill:url(#Dégradé_sans_nom_29);}.cls-14{fill:url(#Dégradé_sans_nom_43);}</style><linearGradient id="Dégradé_sans_nom_99" x1="129.31" y1="35.94" x2="118.17" y2="21.15" gradientUnits="userSpaceOnUse"><stop offset="0" stop-color="#176896"/><stop offset="0.4" stop-color="#116797"/><stop offset="0.46" stop-color="#0f6797"/><stop offset="0.48" stop-color="#0f6998"/><stop offset="1" stop-color="#0f86a7"/></linearGradient><linearGradient id="Dégradé_sans_nom_50" x1="110.21" y1="41.51" x2="118.05" y2="44.68" gradientUnits="userSpaceOnUse"><stop offset="0" stop-color="#00b9b7"/><stop offset="0.16" stop-color="#04aab2"/><stop offset="0.44" stop-color="#0a96ac"/><stop offset="0.72" stop-color="#0e8aa8"/><stop offset="1" stop-color="#0f86a7"/></linearGradient><linearGradient id="Dégradé_sans_nom_19" x1="64.32" y1="37.11" x2="116.73" y2="37.11" gradientUnits="userSpaceOnUse"><stop offset="0" stop-color="#3b9696"/><stop offset="0.09" stop-color="#318893"/><stop offset="0.32" stop-color="#1c6c8d"/><stop offset="0.55" stop-color="#0d5889"/><stop offset="0.77" stop-color="#044c87"/><stop offset="1" stop-color="#014886"/></linearGradient><linearGradient id="Dégradé_sans_nom_19-2" x1="51.83" y1="66.48" x2="92.97" y2="92.18" xlink:href="#Dégradé_sans_nom_19"/><linearGradient id="Dégradé_sans_nom_19-3" x1="69.31" y1="53.65" x2="72" y2="55.33" xlink:href="#Dégradé_sans_nom_19"/><linearGradient id="Dégradé_sans_nom_29" x1="23.93" y1="46.9" x2="93.98" y2="46.9" gradientUnits="userSpaceOnUse"><stop offset="0" stop-color="#57dccf"/><stop offset="0.14" stop-color="#45c6c5"/><stop offset="0.35" stop-color="#2daab8"/><stop offset="0.57" stop-color="#1c96ae"/><stop offset="0.78" stop-color="#128aa9"/><stop offset="1" stop-color="#0f86a7"/></linearGradient><linearGradient id="Dégradé_sans_nom_43" x1="16.54" y1="43.86" x2="41.84" y2="47.87" gradientUnits="userSpaceOnUse"><stop offset="0" stop-color="#57dccf"/><stop offset="0.04" stop-color="#52d7ce"/><stop offset="0.28" stop-color="#35bcc6"/><stop offset="0.53" stop-color="#20a8c0"/><stop offset="0.77" stop-color="#139cbc"/><stop offset="1" stop-color="#0f98bb"/></linearGradient></defs><title>bmp</title><g id="Calque_7" data-name="Calque 7"><circle class="cls-1" cx="123.75" cy="28.53" r="8.64"/><path class="cls-1" d="M55.1,72a5.92,5.92,0,0,0-5.88-5.26,5.84,5.84,0,0,0-2.21.43l-.51.23a5.92,5.92,0,1,0,8.64,5.25Z"/><path class="cls-1" d="M59.74,36.73a9.82,9.82,0,0,0-13.42-8s-.57.25-.85.39a9.82,9.82,0,1,0,14.34,8.72Z"/><path class="cls-1" d="M78.89,16.07a4.83,4.83,0,0,0-4.81-4.3,4.74,4.74,0,0,0-1.81.35l-.42.19a4.85,4.85,0,1,0,7.07,4.3Z"/><path class="cls-2" d="M122.9,19.33A9.26,9.26,0,1,0,133,27.71,9.26,9.26,0,0,0,122.9,19.33Zm-5.85,13.21-.46,0-.4,0,.29-1a.56.56,0,0,1-.33-.46.57.57,0,0,1,.33-.56l-.2-2.18.38.06.19,2.09a.56.56,0,0,1,.18,1l.46.88ZM128,31.2c-.12.07-3,1.93-4,2A5.35,5.35,0,0,1,119.76,32l-.22-2.36,4.29,1,3.93-1.72Zm-.25-3L123.8,29.9l-4.29-1-4.29-1,8.07-3.58,8.7,2Z"/><circle class="cls-3" cx="114.13" cy="43.09" r="4.23"/><circle class="cls-4" cx="123.69" cy="44.19" r="2.39"/><circle class="cls-5" cx="119.28" cy="53.01" r="2.39"/><circle class="cls-6" cx="99.52" cy="86.27" r="4.23"/><circle class="cls-7" cx="108.34" cy="80.02" r="2.39"/><circle class="cls-8" cx="50.06" cy="73.42" r="3.18" transform="translate(-38.3 63.97) rotate(-49.61)"/><circle class="cls-8" cx="46.14" cy="38.53" r="5.11" transform="translate(-10.26 59.32) rotate(-60.09)"/><path class="cls-8" d="M72.8,48l0,.15A.88.88,0,0,0,72.8,48Z"/><circle class="cls-8" cx="46.14" cy="38.53" r="5.11" transform="translate(-10.26 59.32) rotate(-60.09)"/><circle class="cls-8" cx="50.06" cy="73.42" r="3.18" transform="translate(-38.3 63.97) rotate(-49.61)"/><circle class="cls-8" cx="50.06" cy="73.42" r="3.18" transform="translate(-38.3 63.97) rotate(-49.61)"/><circle class="cls-8" cx="46.14" cy="38.53" r="5.11" transform="translate(-10.26 59.32) rotate(-60.09)"/><polygon class="cls-9" points="72.8 47.99 72.8 47.99 72.8 47.99 72.8 47.99"/><path class="cls-10" d="M116.28,61.71c-1.89,4-21.41,3-24.74,2.54L89.67,64a37.72,37.72,0,0,0-11-47.88,4.58,4.58,0,0,0-6.26-3.74,37.46,37.46,0,0,0-8.05-2.74,40.34,40.34,0,0,1,43.26,37,41.54,41.54,0,0,1,.11,4.72.72.72,0,0,0,.41.69C113.77,54.78,118.17,57.68,116.28,61.71Z"/><path class="cls-11" d="M99,74.92a90.7,90.7,0,0,0-12-4.24l-1.42-.41C79,68.43,72,66.78,66.82,65.69a.74.74,0,0,0-.88.79l.5,6.26.47,5.86.1.34,1.31-10L83.15,72.9a37.76,37.76,0,0,1-40.73,8.65,40.2,40.2,0,0,0,28.19,8.51c10-.81,18.07-4.2,24.63-10.86a7.77,7.77,0,0,1-2-.94,17.21,17.21,0,0,1,3.07.3,12.42,12.42,0,0,0,3.06,0c1.55-.12,2.77-.67,2.83-1.25S101.44,76.07,99,74.92Z"/><path class="cls-12" d="M68.78,60.48l4-12.34s0,0,0,0L67.26,59.24a.74.74,0,0,0,.55,1.06Z"/><circle class="cls-8" cx="50.06" cy="73.42" r="3.18" transform="translate(-38.3 63.97) rotate(-49.61)"/><path class="cls-13" d="M72.8,48a.88.88,0,0,1,0,.15l-4,12.34c3.27.58,14.1,2.49,20.89,3.5a37.72,37.72,0,0,0-11-47.88,4.36,4.36,0,0,1,0,.51,4.59,4.59,0,1,1-6.29-4.25,37.46,37.46,0,0,0-8.05-2.74h-.19A40.37,40.37,0,0,0,29.39,36.2a.81.81,0,0,1-.19.29l.1,0S25,37.92,25,41.61c0,3.22,3.24,8.16,15.35,15.41a5.68,5.68,0,0,1,1.3.71h0a27.62,27.62,0,0,1-5.27-.94l-.08,0c-4.35-1.32-7.23-2.32-9.1-3-3.4-1.26-3.52-1.53-3.14-1a21.87,21.87,0,0,0,3.34,3.74.76.76,0,0,1,.23.42A40.25,40.25,0,0,0,42.42,81.55,37.76,37.76,0,0,0,83.15,72.9L68.32,69,67,78.94l-.1-.34,0,.37a.74.74,0,0,1-1,.76l-.6-.2a.74.74,0,0,1-.46-.44l-1.47-3.83a.74.74,0,0,0-.57-.47c-.87-.13-2.71-.56-1.94-1.69,1-1.47,1.58-1,1.58-1l-.21-.51-.63-1.47a.74.74,0,0,0-.6-.45,1.74,1.74,0,0,1-1.62-1.21.83.83,0,0,1,.66-1.13.74.74,0,0,0,.48-1l-.76-1.65a.72.72,0,0,0-.57-.42c-1.54-.22-7.11-1.12-8.55-3.29a1.88,1.88,0,0,1-.32-1.37.29.29,0,0,1,0-.09c.39-2,10.23-.27,10.23-.27l.2-.23L62,57.67a.74.74,0,0,0,0-.92A1.77,1.77,0,0,1,61.69,55c.32-.81,1.55-.59,2.25-.39a.78.78,0,0,0,.82-.28l.58-.82a.75.75,0,0,0,0-.89A1.37,1.37,0,0,1,65,51.15c.34-.61,1.43-.47,2-.32a.76.76,0,0,0,.74-.24l2.76-3.24a.72.72,0,0,1,.58-.26l1,0a.74.74,0,0,1,.71.87ZM43.58,38.73a2.57,2.57,0,1,1,2.77,2.36A2.57,2.57,0,0,1,43.58,38.73Zm9.65,34.43a3.18,3.18,0,1,1-3.42-2.91A3.19,3.19,0,0,1,53.23,73.16Zm.16-28.66a1.71,1.71,0,1,1,1.7-1.7A1.7,1.7,0,0,1,53.39,44.5Zm1.44-5.76a3.67,3.67,0,1,1,3.67-3.67A3.67,3.67,0,0,1,54.83,38.74Z"/><path class="cls-14" d="M29.3,36.51l-.1,0a.75.75,0,0,1-.46.2c-4.11.25-7.31.84-9.32,1.76C18,39.08,17.21,39.87,17,40.8s.45,2.07,1.6,3.37A37.1,37.1,0,0,0,27,50.64a55.71,55.71,0,0,0,6,3.08l3.87,1.69c.27.12,2.16,1,3.49,1.61h0C14.38,41.46,29.3,36.51,29.3,36.51Z"/></g></svg>