<svg xmlns="http://www.w3.org/2000/svg" xmlns:xlink="http://www.w3.org/1999/xlink" viewBox="0 0 1000 650"><defs><style>.cls-1{fill:#fff;}.cls-2{fill:url(#Dégradé_sans_nom_99);}.cls-3{fill:url(#Dégradé_sans_nom_50);}.cls-4{fill:#57dccf;}.cls-5{fill:#00b9b7;}.cls-6{fill:#0f86a7;}.cls-7{fill:#0d2e73;}.cls-8{fill:none;}.cls-9{fill:#e6e6e6;}.cls-10{fill:url(#Dégradé_sans_nom_19);}.cls-11{fill:url(#Dégradé_sans_nom_19-2);}.cls-12{fill:url(#Dégradé_sans_nom_19-3);}.cls-13{fill:url(#Dégradé_sans_nom_29);}.cls-14{fill:url(#Dégradé_sans_nom_43);}.cls-15{font-size:39.29px;fill:#333;font-family:Corbel, Corbel;}.cls-16{letter-spacing:-0.05em;}.cls-17{fill:#0f98bb;}.cls-18{fill:url(#Dégradé_sans_nom_79);}.cls-19{fill:url(#Dégradé_sans_nom_109);}.cls-20{fill:url(#Dégradé_sans_nom_109-2);}.cls-21{fill:url(#Dégradé_sans_nom_153);}.cls-22{fill:#176896;}.cls-23{fill:#faf273;}.cls-24{fill:url(#Dégradé_sans_nom_151);}</style><linearGradient id="Dégradé_sans_nom_99" x1="522.26" y1="271.33" x2="479.69" y2="214.85" gradientUnits="userSpaceOnUse"><stop offset="0" stop-color="#176896"/><stop offset="0.4" stop-color="#116797"/><stop offset="0.46" stop-color="#0f6797"/><stop offset="0.48" stop-color="#0f6998"/><stop offset="1" stop-color="#0f86a7"/></linearGradient><linearGradient id="Dégradé_sans_nom_50" x1="449.31" y1="292.57" x2="479.25" y2="304.67" gradientUnits="userSpaceOnUse"><stop offset="0" stop-color="#00b9b7"/><stop offset="0.16" stop-color="#04aab2"/><stop offset="0.44" stop-color="#0a96ac"/><stop offset="0.72" stop-color="#0e8aa8"/><stop offset="1" stop-color="#0f86a7"/></linearGradient><linearGradient id="Dégradé_sans_nom_19" x1="274.08" y1="275.78" x2="474.19" y2="275.78" gradientUnits="userSpaceOnUse"><stop offset="0" stop-color="#3b9696"/><stop offset="0.09" stop-color="#318893"/><stop offset="0.32" stop-color="#1c6c8d"/><stop offset="0.55" stop-color="#0d5889"/><stop offset="0.77" stop-color="#044c87"/><stop offset="1" stop-color="#014886"/></linearGradient><linearGradient id="Dégradé_sans_nom_19-2" x1="226.39" y1="387.92" x2="383.46" y2="486.07" xlink:href="#Dégradé_sans_nom_19"/><linearGradient id="Dégradé_sans_nom_19-3" x1="293.12" y1="338.94" x2="303.38" y2="345.35" xlink:href="#Dégradé_sans_nom_19"/><linearGradient id="Dégradé_sans_nom_29" x1="119.83" y1="313.15" x2="387.32" y2="313.15" gradientUnits="userSpaceOnUse"><stop offset="0" stop-color="#57dccf"/><stop offset="0.14" stop-color="#45c6c5"/><stop offset="0.35" stop-color="#2daab8"/><stop offset="0.57" stop-color="#1c96ae"/><stop offset="0.78" stop-color="#128aa9"/><stop offset="1" stop-color="#0f86a7"/></linearGradient><linearGradient id="Dégradé_sans_nom_43" x1="91.62" y1="301.56" x2="188.2" y2="316.86" gradientUnits="userSpaceOnUse"><stop offset="0" stop-color="#57dccf"/><stop offset="0.04" stop-color="#52d7ce"/><stop offset="0.28" stop-color="#35bcc6"/><stop offset="0.53" stop-color="#20a8c0"/><stop offset="0.77" stop-color="#139cbc"/><stop offset="1" stop-color="#0f98bb"/></linearGradient><linearGradient id="Dégradé_sans_nom_79" x1="543.86" y1="342.4" x2="567.34" y2="379.97" gradientUnits="userSpaceOnUse"><stop offset="0" stop-color="#0f98bb"/><stop offset="1" stop-color="#176896"/></linearGradient><linearGradient id="Dégradé_sans_nom_109" x1="620.72" y1="310.74" x2="654.18" y2="364.28" gradientUnits="userSpaceOnUse"><stop offset="0" stop-color="#0f98bb"/><stop offset="1" stop-color="#0d2e73"/></linearGradient><linearGradient id="Dégradé_sans_nom_109-2" x1="597.58" y1="305.5" x2="679.65" y2="305.5" xlink:href="#Dégradé_sans_nom_109"/><linearGradient id="Dégradé_sans_nom_153" x1="694.9" y1="344.57" x2="751.46" y2="313.22" gradientUnits="userSpaceOnUse"><stop offset="0.25" stop-color="#0c2e68"/><stop offset="0.43" stop-color="#0f4076"/><stop offset="0.79" stop-color="#155d8d"/><stop offset="1" stop-color="#176896"/></linearGradient><linearGradient id="Dégradé_sans_nom_151" x1="680.76" y1="357.06" x2="709.26" y2="350.48" gradientUnits="userSpaceOnUse"><stop offset="0.24" stop-color="#0e3a71"/><stop offset="0.28" stop-color="#0e3c73"/><stop offset="1" stop-color="#176896"/></linearGradient></defs><title>AOAC_empty 1_svg</title><g id="Calque_5" data-name="Calque 5"><circle class="cls-1" cx="501" cy="243.5" r="33"/><path class="cls-1" d="M238.86,409.58a22.6,22.6,0,0,0-22.45-20.09,22.33,22.33,0,0,0-8.43,1.64s-1.32.57-2,.9a22.59,22.59,0,1,0,33,20.05Z"/><path class="cls-1" d="M256.59,274.84a37.51,37.51,0,0,0-37.26-33.35,37.07,37.07,0,0,0-14,2.73s-2.19.94-3.25,1.49A37.5,37.5,0,1,0,256.83,279Z"/><path class="cls-1" d="M329.71,196a18.5,18.5,0,0,0-18.38-16.46,18.3,18.3,0,0,0-6.91,1.35s-1.08.46-1.6.73a18.5,18.5,0,1,0,27,16.43Z"/><path class="cls-2" d="M497.77,207.88a35.36,35.36,0,1,0,38.42,32A35.34,35.34,0,0,0,497.77,207.88Zm-22.35,50.45-1.75.16-1.54-.21,1.12-3.62a2.14,2.14,0,0,1,0-3.9l-.76-8.3,1.46.22.72,7.95a2.15,2.15,0,0,1,.7,3.84l1.75,3.35Zm41.69-5.11c-.46.26-11.25,7.36-15.1,7.71-6.74.61-12.83-1.39-16.25-4.86l-.82-9L501.33,251l15-6.56Zm-.92-11.55-15,6.56-16.39-3.93-16.39-3.93,30.82-13.65,33.24,7.82Z"/><circle class="cls-3" cx="464.28" cy="298.62" r="16.14"/><circle class="cls-4" cx="500.77" cy="302.83" r="9.12"/><circle class="cls-5" cx="483.93" cy="336.51" r="9.12"/><circle class="cls-6" cx="408.47" cy="463.51" r="16.14"/><circle class="cls-7" cx="442.15" cy="439.65" r="9.12"/><circle class="cls-8" cx="306.89" cy="196.73" r="12.13"/><circle class="cls-8" cx="219.63" cy="414.43" r="12.13" transform="translate(-238.33 313.14) rotate(-49.61)"/><circle class="cls-8" cx="204.65" cy="281.19" r="19.52" transform="matrix(0.5, -0.87, 0.87, 0.5, -141.13, 318.4)"/><path class="cls-8" d="M306.45,317.34l-.18.56A2.43,2.43,0,0,0,306.45,317.34Z"/><circle class="cls-8" cx="204.65" cy="281.19" r="19.52" transform="matrix(0.5, -0.87, 0.87, 0.5, -141.13, 318.4)"/><circle class="cls-8" cx="219.63" cy="414.43" r="12.13" transform="translate(-238.33 313.14) rotate(-49.61)"/><circle class="cls-8" cx="219.63" cy="414.43" r="12.13" transform="translate(-238.33 313.14) rotate(-49.61)"/><circle class="cls-8" cx="204.65" cy="281.19" r="19.52" transform="matrix(0.5, -0.87, 0.87, 0.5, -141.13, 318.4)"/><path class="cls-9" d="M306.46,317.32h0v0Z"/><path class="cls-10" d="M472.49,369.7c-7.21,15.37-81.78,11.5-94.49,9.73-2.2-.31-4.6-.66-7.14-1a144,144,0,0,0-42.15-182.84A17.5,17.5,0,0,0,311.32,180a17.3,17.3,0,0,0-6.53,1.27,142.78,142.78,0,0,0-30.71-10.46A154.17,154.17,0,0,1,439.67,330.05a2.85,2.85,0,0,0,1.59,2.64C462.91,343.24,479.7,354.33,472.49,369.7Z"/><path class="cls-11" d="M406.41,420.16c-11.51-5.38-28-11-46-16.2-1.79-.52-3.59-1-5.41-1.56-24.76-7-51.52-13.32-71.37-17.48a2.82,2.82,0,0,0-3.39,3l1.92,23.92L284,434.22l.35,1.27,5-38,56.66,15a144.15,144.15,0,0,1-155.55,33A153.49,153.49,0,0,0,298.08,478c38.34-3.09,69-16.05,94.05-41.45,0,0-5.43-1.68-7.7-3.62-.48-.41,7.45.46,11.74,1.18a49.42,49.42,0,0,0,11.65.11c5.93-.47,10.61-2.56,10.83-4.81C418.88,427,415.83,424.56,406.41,420.16Z"/><path class="cls-12" d="M291.1,365l15.17-47.11a1.39,1.39,0,0,1-.06.19l-20.92,42.2a2.84,2.84,0,0,0,2.1,4.06Z"/><circle class="cls-8" cx="219.63" cy="414.43" r="12.13" transform="translate(-238.33 313.14) rotate(-49.61)"/><path class="cls-8" d="M307.86,208.82A12.13,12.13,0,1,1,319,195.75,12.13,12.13,0,0,1,307.86,208.82Z"/><path class="cls-13" d="M306.45,317.33a3.65,3.65,0,0,1-.18.56L291.09,365c12.5,2.22,53.85,9.51,79.77,13.38a144,144,0,0,0-42.15-182.84,17.73,17.73,0,0,1,.11,1.94,17.5,17.5,0,1,1-24-16.23,142.78,142.78,0,0,0-30.71-10.46l-.76,0A154.11,154.11,0,0,0,140.68,272.29a2.8,2.8,0,0,1-.73,1.11l.37.09s-16.26,5.39-16.26,19.48c0,12.27,12.36,31.15,58.61,58.82,2.82,1.36,5,2.47,5,2.71,0,0,0,.05-.08.05-4.21.34-18.49-3.07-20.13-3.57l-.28-.08c-16.61-5.07-27.61-8.88-34.78-11.54-13-4.81-13.43-5.84-12-3.75a83.3,83.3,0,0,0,12.74,14.28,2.85,2.85,0,0,1,.89,1.59,153.62,153.62,0,0,0,56.39,94,144.11,144.11,0,0,0,155.55-33l-56.65-15-5,38-.36-1.27.12,1.4a2.83,2.83,0,0,1-3.73,2.91l-2.28-.77a2.82,2.82,0,0,1-1.74-1.67l-5.62-14.63a2.83,2.83,0,0,0-2.2-1.78c-3.3-.51-10.35-2.14-7.41-6.48,3.78-5.6,6-3.67,6-3.67l-.82-1.92L263.94,402a2.82,2.82,0,0,0-2.29-1.71c-2-.21-5.2-1.1-6.2-4.61-.76-2.65.82-3.82,2.54-4.34a2.85,2.85,0,0,0,1.82-3.9l-2.88-6.28a2.84,2.84,0,0,0-2.18-1.63c-5.9-.81-27.18-4.26-32.66-12.55a7.14,7.14,0,0,1-1.22-5.21c0-.12,0-.25.06-.36,1.51-7.54,39.08-1,39.08-1l.76-.88,4.41-5.19a2.83,2.83,0,0,0,.13-3.51c-1.14-1.53-2.37-4-1.31-6.62,1.24-3.07,5.93-2.24,8.61-1.48a2.86,2.86,0,0,0,3.12-1.08l2.21-3.13a2.82,2.82,0,0,0-.08-3.38c-1.15-1.43-2.42-3.67-1.29-5.7,1.3-2.34,5.47-1.77,7.81-1.22a2.85,2.85,0,0,0,2.83-.92l10.52-12.36a2.84,2.84,0,0,1,2.24-1l3.78.12a2.83,2.83,0,0,1,2.7,3.32ZM194.87,282a9.81,9.81,0,1,1,10.57,9A9.81,9.81,0,0,1,194.87,282Zm36.85,131.48a12.13,12.13,0,1,1-13.07-11.12A12.14,12.14,0,0,1,231.72,413.45Zm.6-109.46a6.5,6.5,0,1,1,6.5-6.5A6.5,6.5,0,0,1,232.32,304Zm5.5-22a14,14,0,1,1,14-14A14,14,0,0,1,237.82,282Z"/><path class="cls-14" d="M140.32,273.49l-.37-.09a2.76,2.76,0,0,1-1.76.77c-15.69,1-27.9,3.22-35.6,6.72-5.28,2.41-8.44,5.41-9.12,9-.64,3.39,1.71,7.88,6.13,12.88,6.86,7.76,18.7,16.73,32.07,24.67a210,210,0,0,0,22.9,11.78c5.24,2.29,10.14,4.44,14.8,6.46,1,.46,8.25,3.69,13.3,6.12h0C83.37,292.39,140.32,273.49,140.32,273.49Z"/><text class="cls-15" transform="translate(504.85 404.1)">Agence d<tspan class="cls-16" x="151.78" y="0">’</tspan><tspan x="158.28" y="0">orientation</tspan></text><text class="cls-15" transform="translate(572.32 441.99)">Académique</text><path class="cls-8" d="M685,336.69q-3-2.18-6-4.5a.87.87,0,0,0-1.39.5v0a.86.86,0,0,0,.52,1Q681.61,335.12,685,336.69Z"/><path class="cls-8" d="M552.85,310.76a.87.87,0,0,0-1.62,0q-1.2,3-3.29,9.15-3.11,9-3.11,10.53c0,.69,1.15,1.07,3.46,1.15,1.18.08,3.14.12,5.87.12,2.53,0,3.93-.31,4.2-.92a2.51,2.51,0,0,0,.11-.81q0-1.91-2.64-10.48Q554,313.63,552.85,310.76Z"/><path class="cls-8" d="M651.6,307.69a17.67,17.67,0,0,0-14-6.33,17.49,17.49,0,0,0-13.75,6.56A21.59,21.59,0,0,0,618.41,322h.09a158.07,158.07,0,0,1,37,4.39.86.86,0,0,0,1.06-.7,24,24,0,0,0,.24-3.32A21.67,21.67,0,0,0,651.6,307.69Z"/><path class="cls-17" d="M578.14,323.16q-13.65-35.4-16.47-41.45-.92-1.89-2-1.89c-1,0-2.5.06-4.52.2s-3.54.2-4.57.2-2.7-.1-4.87-.29-3.77-.29-4.8-.29c-.62,0-1.15.73-1.61,2.19q-1.21,3.8-15.31,42-13,35.28-13,36.78c0,.38.36.7,1.07,1A157.09,157.09,0,0,1,578.18,326a.86.86,0,0,0,.59-1.15Q578.45,324,578.14,323.16Zm-20.78,6.62c-.27.61-1.67.92-4.2.92-2.73,0-4.69,0-5.87-.12-2.31-.08-3.46-.46-3.46-1.15q0-1.56,3.11-10.53,2.09-6.13,3.29-9.15a.87.87,0,0,1,1.62,0q1.14,2.87,3,8.73,2.64,8.58,2.64,10.48A2.51,2.51,0,0,1,557.36,329.78Z"/><path class="cls-7" d="M810.88,365.79q14.4,0,24.1-8.47a156.8,156.8,0,0,1-31.12,7.95A46.93,46.93,0,0,0,810.88,365.79Z"/><path class="cls-18" d="M533.9,364.78q1.54-.4,2.64-5.18c.76-3.27,1.44-5.28,2.07-6a.73.73,0,0,1,.38-.24q1.46-.4,10.16-.41,13.4,0,15.21.34a.75.75,0,0,1,.35.16c.72.65,1.69,3.58,2.91,8.77a3.11,3.11,0,0,0,2.48,2.59,73.74,73.74,0,0,0,10.59.46c6,0,9.55-.16,10.71-.46,1-.27,1.43-.75,1.43-1.44q0-1.48-12.43-33.89a.89.89,0,0,0-1-.54A157.17,157.17,0,0,0,513,364.53c1.33.47,3.9.71,7.73.71Q531.95,365.24,533.9,364.78Z"/><path class="cls-19" d="M637.61,366.91q17.91,0,29.59-12.32a40.78,40.78,0,0,0,10.09-18.43.88.88,0,0,0-.54-1,155.21,155.21,0,0,0-19.43-6.31.88.88,0,0,0-1.06.67,21.47,21.47,0,0,1-4.83,9.32,18.56,18.56,0,0,1-27.92.34,21.52,21.52,0,0,1-5.12-14.67c0-.17,0-.33,0-.49a158.6,158.6,0,0,0-21,1.42.88.88,0,0,0-.76.9q.57,16.64,11.47,28.15Q619.82,366.91,637.61,366.91Z"/><path class="cls-20" d="M668.08,291.38q-11.8-12.48-29.47-12.49c-.51,0-1,0-1.52,0a38.59,38.59,0,0,0-28,12.45q-11.54,12.22-11.51,30.15l1,.86a159.38,159.38,0,0,1,20-1.39.86.86,0,0,0,.85-.82,21.58,21.58,0,0,1,5.42-13.26,17.49,17.49,0,0,1,13.75-6.56,17.67,17.67,0,0,1,14,6.33,23,23,0,0,1,5,18.14.89.89,0,0,0,.64,1,155.17,155.17,0,0,1,19.3,6.23.86.86,0,0,0,1.17-.62q.12-.56.21-1.11a49.49,49.49,0,0,0,.76-8.82Q679.65,303.7,668.08,291.38Z"/><path class="cls-21" d="M750.44,323.16q-13.63-35.4-16.46-41.45-.91-1.89-2-1.89c-1,0-2.51.06-4.52.2s-3.54.2-4.57.2-2.7-.1-4.87-.29-3.77-.29-4.8-.29q-.93,0-1.62,2.19-1.2,3.8-15.31,42-2.81,7.6-5,13.64a.86.86,0,0,0,.42,1.06A158.11,158.11,0,0,1,710.62,350a.86.86,0,0,0,.6.16q2.34-.26,9.24-.26,13.39,0,15.2.34a.74.74,0,0,1,.36.16c.72.65,1.69,3.58,2.91,8.77a4.21,4.21,0,0,0,.48,1.16,2.92,2.92,0,0,0,2,1.43,45,45,0,0,0,6.43.42c1.24,0,2.61,0,4.16,0,6,0,9.55-.16,10.7-.46q1.44-.4,1.44-1.44Q764.14,358.78,750.44,323.16Zm-20.77,6.62c-.27.61-1.67.92-4.21.92-2.72,0-4.68,0-5.87-.12-2.3-.08-3.45-.46-3.45-1.15q0-1.56,3.11-10.53,2.09-6.13,3.29-9.15a.87.87,0,0,1,1.62,0q1.14,2.87,3,8.73,2.65,8.58,2.65,10.48A2.51,2.51,0,0,1,729.67,329.78Z"/><path class="cls-22" d="M836,351.19a4.38,4.38,0,0,0,1.21-2.42q0-.63-4.2-7-4.1-6.17-5-7.2a1.61,1.61,0,0,0-1.15-.63,14.82,14.82,0,0,0-2.82,2.19,29.2,29.2,0,0,1-6,4,21.37,21.37,0,0,1-9.49,2.19,16.36,16.36,0,0,1-13.53-6.44q-4.66-5.94-4.66-14.68a22.6,22.6,0,0,1,4.66-14.51,16.45,16.45,0,0,1,13.53-6.33,20.55,20.55,0,0,1,9.43,2.31,30.29,30.29,0,0,1,6.11,4.31,14.92,14.92,0,0,0,2.87,2.3,1.54,1.54,0,0,0,1.15-.46c.7-.57,2.37-3.2,5-7.88s4-7.39,4-8.12a3.57,3.57,0,0,0-1.15-2.24q-10.59-11.46-29.24-11.45-17.14,0-28.26,12.77-10.65,12.21-10.65,29.7,0,18.07,10.88,29.93a36.33,36.33,0,0,0,22,11.72.71.71,0,0,0,.29,0,156,156,0,0,0,30.82-7.87,1.22,1.22,0,0,0,.29-.17A38.29,38.29,0,0,0,836,351.19Z"/><path class="cls-23" d="M709.84,351.23l.18.08-.13-.09Z"/><path class="cls-24" d="M690.91,341.6l-1.23.49q-7.41,20.34-7.4,21.48,0,1.67,8.8,1.67,11.17,0,13.13-.46,1.54-.4,2.64-5.18c.81-3.49,1.54-5.55,2.19-6.16a2.05,2.05,0,0,1,.8-.21h0A157.42,157.42,0,0,0,690.91,341.6Z"/></g></svg>